<svg xmlns="http://www.w3.org/2000/svg" width="512" height="448" viewBox="0 0 512 448" data-fill-processed="true"><path fill="#000" d="M0 32C0 14.3 14.3 0 32 0h448c17.7 0 32 14.3 32 32s-14.3 32-32 32v320c17.7 0 32 14.3 32 32s-14.3 32-32 32H32c-17.7 0-32-14.3-32-32s14.3-32 32-32V64C14.3 64 0 49.7 0 32m256 32c-8.8 0-16 7.2-16 16v32h-80c-8.8 0-16 7.2-16 16s7.2 16 16 16h80v48H128c-8.8 0-16 7.2-16 16s7.2 16 16 16h112v70.6L189.1 275q-7.8-3-16.2-3h-2.1c-23.6 0-42.8 19.2-42.8 42.8 0 9.6 3.2 18.9 9.1 26.4l18.2 23.2c9.7 12.4 24.6 19.6 40.3 19.6h120.8c15.7 0 30.6-7.2 40.3-19.6l18.2-23.2c5.9-7.5 9.1-16.8 9.1-26.4 0-23.6-19.2-42.8-42.8-42.8H339c-5.5 0-11 1-16.2 3L272 294.6V224h112c8.8 0 16-7.2 16-16s-7.2-16-16-16H272v-48h80c8.8 0 16-7.2 16-16s-7.2-16-16-16h-80V80c0-8.8-7.2-16-16-16m-48 256c4.243 0 8.313 1.686 11.314 4.686a16.004 16.004 0 0 1 0 22.628 16.004 16.004 0 0 1-22.628 0 16.004 16.004 0 0 1 0-22.628c3.001-3 7.071-4.686 11.314-4.686m80 16c0-4.243 1.686-8.313 4.686-11.314a16.004 16.004 0 0 1 22.628 0 16.004 16.004 0 0 1 0 22.628 16.004 16.004 0 0 1-22.628 0A16 16 0 0 1 288 336"/></svg>