<svg xmlns="http://www.w3.org/2000/svg" width="513" height="512" viewBox="0 0 513 512" data-fill-processed="true"><g fill="#000"><path d="M423.837 47.233c-.195.85-.446 1.689-.691 2.51a59.7 59.7 0 0 1-7.41 13.645c0 .028-.049.04-.061.067-11.715 16.465-30.413 29.371-36.307 33.21v-.169q-.717.533-1.461 1.064H160.392c-54.49-39.12-55.414-67.652-55.414-67.652-1.498-9.833 2.091-18.8 14.173-25.33 0 0 17.481-7.88 46.212-.168a117 117 0 0 1 13.989 4.773 134 134 0 0 1 13.213 6.248c27.392 12.254 47.245 2.178 54.876-3.079 0 0 .03 0 .049-.028a39 39 0 0 1 3.387-2.618h.03c4.61-3.315 9.946-5.67 15.641-6.9 9.049-1.897 20.434-.963 33.781 6.754.41.23.813.484 1.223.737 9.85 5.984 30.608 14.753 53.494 1.616a56 56 0 0 1 2.201-1.328 79 79 0 0 1 4.017-2.252 80 80 0 0 1 12.283-5.313 88 88 0 0 1 3.357-1.008 62 62 0 0 1 8.187-1.615c18.068-2.224 28.334 5.628 28.334 5.628 5.632 5.012 9.393 11.54 10.742 18.643.043.185.092.382.123.563.563 2.52.913 5.078 1.045 7.649a47.8 47.8 0 0 1-1.498 14.353m84.291 305.951C482.73 225.67 376.672 140.665 376.672 140.665h-215.1S-7.231 285.178.241 402.773c7.472 117.596 94.11 109.091 94.11 109.091l114.912.045V334.834h108.033v177.115h65.533c23.466-.991 52.833-4.222 71.121-13.476a134 134 0 0 0 11.201-7.947l.043-.04c27.759-21.89 57.633-63.458 42.934-137.302m-241.99-51.272c-33.488-1.599-60.696-27.412-62.365-59.17-1.969-37.093 30.149-67.545 69.244-65.665 33.481 1.61 60.678 27.412 62.365 59.159 1.981 37.082-30.137 67.55-69.244 65.676M373.083 111.452H163.834c-4.781 0-8.658 3.568-8.658 7.97s3.877 7.97 8.658 7.97h209.249c4.781 0 8.657-3.568 8.657-7.97s-3.876-7.97-8.657-7.97"/></g></svg>