<svg xmlns="http://www.w3.org/2000/svg" width="512" height="512" viewBox="0 0 512 512" data-fill-processed="true"><path fill="#000" d="M448 42.667h-64V0h-42.667v42.667H170.667V0H128v42.667H64c-35.285 0-64 28.714-64 64V512h512V106.667c0-35.286-28.715-64-64-64M64 85.333h384c11.755 0 21.333 9.579 21.333 21.334v64H42.667v-64c0-11.755 9.578-21.334 21.333-21.334m-21.333 384v-256h426.666v256zm316.16-142.272-51.35 38.038 19.563 60.138-18.837 12.864-52.011-35.264-52.459 35.542-17.45-13.483 18.56-60.437-50.326-36.566 3.456-18.624h66.176l18.966-66.154h24.896l20.138 66.154h65.835l4.821 17.814z"/></svg>