<svg xmlns="http://www.w3.org/2000/svg" width="513" height="512" viewBox="0 0 513 512" data-fill-processed="true"><path fill="#000" d="M512.011 255.998C512.011 111.123 391.669-5.635 245.492.21 115.486 5.416 7.496 111.742.392 241.641c-6.421 117.59 66.667 218.796 170.284 255.468v-91.798c0-39.637 27.307-72.768 64-82.304v-88.363c0-11.776 9.558-21.334 21.334-21.334s21.333 9.558 21.333 21.334v85.334h29.206a170.64 170.64 0 0 1 112.726 42.538l46.059 40.534c29.312-41.643 46.677-92.289 46.677-147.052m-320.002 28.993c-33.194-13.782-55.467-33.153-56.875-34.411l28.374-31.851c.213.171 11.243 9.728 28.501 19.136zm-10.666-114.326c-17.664 0-32.001-14.336-32.001-32.001s14.337-32 32.001-32 32 14.336 32 32-14.336 32.001-32 32.001m117.334-32.001c0-17.664 14.336-32 32-32s32 14.336 32 32-14.336 32.001-32 32.001-32-14.336-32-32.001m21.333 99.201c17.259-9.387 28.288-18.944 28.502-19.136l28.373 31.851c-1.408 1.258-23.68 20.651-56.875 34.411zM344.416 512H213.343V405.333c0-23.574 19.093-42.667 42.667-42.667h64c23.574 0 42.667 19.093 42.667 42.667v21.333c0 11.776-9.557 21.334-21.333 21.334-11.777 0-21.334-9.558-21.334-21.334v-21.333h-21.333v64h45.696a42.76 42.76 0 0 0 33.237-15.872l19.073-23.616c7.402-9.152 20.821-10.582 29.994-3.179 9.174 7.403 10.603 20.843 3.2 29.995l-19.093 23.637A85.3 85.3 0 0 1 344.416 512"/></svg>