<svg xmlns="http://www.w3.org/2000/svg" width="513" height="513" viewBox="0 0 513 513" data-fill-processed="true"><g fill="#000"><path d="M268.227 512.974H98.963C44.544 512.974 0 468.451 0 414.011V313.743c0-18.98 4.232-38.11 14.492-54.077 23.512-36.571 65-53.158 104.862-44.715L447.9 279.694 491.717 8.988c.919-5.857 6.498-9.79 12.29-8.85 5.836.941 9.811 6.435 8.849 12.27l-54.141 334.209c-2.885 20.52-7.182 36.85-13.487 51.192-30.822 69.979-100.267 115.186-176.958 115.186zM98.814 234.188c-25.714 0-50.273 12.696-65.662 35.995-8.315 12.568-11.778 27.743-11.778 42.812v101.08c0 42.834 34.712 77.546 77.547 77.546h145.431c58.266 0 114.951-22.507 155.092-64.743 21.417-22.529 32.382-43.39 38.025-83.446l6.947-42.599-329.379-64.914c-5.408-1.132-10.837-1.731-16.223-1.731"/><path d="M331.687 358.309c-.727 0-1.496-.064-2.244-.235l-225.564-47.387c-5.77-1.218-9.469-6.883-8.272-12.654a10.715 10.715 0 0 1 12.697-8.25l225.563 47.387c5.771 1.218 9.469 6.882 8.272 12.653a10.72 10.72 0 0 1-10.452 8.486M234.904 427.156c-.748 0-1.496-.064-2.266-.235l-149.535-31.72c-5.77-1.24-9.468-6.904-8.25-12.675 1.24-5.792 7.075-9.362 12.718-8.229l149.535 31.72c5.771 1.239 9.469 6.903 8.25 12.675-1.069 5.023-5.514 8.464-10.452 8.464"/></g></svg>